<svg width="1440" height="80" viewBox="0 0 1440 132" fill="none" xmlns="http://www.w3.org/2000/svg">
    <mask id="path-1-inside-1_108_10722" fill="white">
        <path d="M0 0H1440V132H0V0Z" />
    </mask>
    <path d="M0 0H1440V132H0V0Z" fill="white" />
    <path d="M1440 131H0V133H1440V131Z" fill="#D0D3D9" mask="url(#path-1-inside-1_108_10722)" />
    <path
        d="M700.363 30.1006L700.481 34.9561H700.041C699.833 33.7386 699.321 32.7611 698.505 32.0234C697.696 31.2786 696.818 30.9062 695.873 30.9062C695.143 30.9062 694.562 31.1032 694.133 31.4971C693.71 31.8838 693.499 32.3314 693.499 32.8398C693.499 33.1621 693.574 33.4486 693.725 33.6992C693.932 34.0358 694.265 34.3688 694.724 34.6982C695.06 34.9346 695.837 35.3535 697.055 35.9551C698.759 36.793 699.909 37.5843 700.503 38.3291C701.09 39.0739 701.384 39.9261 701.384 40.8857C701.384 42.1032 700.908 43.1523 699.955 44.0332C699.01 44.9069 697.807 45.3438 696.346 45.3438C695.887 45.3438 695.454 45.2972 695.046 45.2041C694.638 45.111 694.126 44.9355 693.51 44.6777C693.166 44.5345 692.883 44.4629 692.661 44.4629C692.475 44.4629 692.278 44.5345 692.07 44.6777C691.863 44.821 691.694 45.0394 691.565 45.333H691.168V39.833H691.565C691.881 41.3799 692.486 42.5615 693.381 43.3779C694.283 44.1872 695.254 44.5918 696.292 44.5918C697.094 44.5918 697.731 44.3734 698.204 43.9365C698.684 43.4997 698.924 42.9912 698.924 42.4111C698.924 42.0674 698.831 41.7344 698.645 41.4121C698.465 41.0898 698.19 40.7855 697.817 40.499C697.445 40.2054 696.786 39.8258 695.841 39.3604C694.516 38.7087 693.563 38.1536 692.983 37.6953C692.403 37.237 691.956 36.7249 691.641 36.1592C691.333 35.5934 691.179 34.9704 691.179 34.29C691.179 33.1299 691.605 32.1416 692.457 31.3252C693.309 30.5088 694.383 30.1006 695.68 30.1006C696.152 30.1006 696.611 30.1579 697.055 30.2725C697.391 30.3584 697.799 30.5195 698.279 30.7559C698.766 30.985 699.106 31.0996 699.3 31.0996C699.486 31.0996 699.633 31.0423 699.74 30.9277C699.848 30.8132 699.948 30.5374 700.041 30.1006H700.363ZM708.291 37.9961V42.5078C708.291 43.2526 708.33 43.7181 708.409 43.9043C708.495 44.0905 708.656 44.2552 708.893 44.3984C709.136 44.5345 709.462 44.6025 709.87 44.6025H710.354V45H702.737V44.6025H703.221C703.643 44.6025 703.983 44.5273 704.241 44.377C704.427 44.2767 704.571 44.1048 704.671 43.8613C704.75 43.6895 704.789 43.2383 704.789 42.5078V32.9258C704.789 32.181 704.75 31.7155 704.671 31.5293C704.592 31.3431 704.431 31.182 704.188 31.0459C703.951 30.9027 703.629 30.8311 703.221 30.8311H702.737V30.4336H710.354V30.8311H709.87C709.448 30.8311 709.107 30.9062 708.85 31.0566C708.663 31.1569 708.517 31.3288 708.409 31.5723C708.33 31.7441 708.291 32.1953 708.291 32.9258V37.0508H713.437V32.9258C713.437 32.181 713.397 31.7155 713.318 31.5293C713.24 31.3431 713.078 31.182 712.835 31.0459C712.591 30.9027 712.266 30.8311 711.857 30.8311H711.385V30.4336H718.99V30.8311H718.518C718.088 30.8311 717.748 30.9062 717.497 31.0566C717.311 31.1569 717.164 31.3288 717.057 31.5723C716.978 31.7441 716.938 32.1953 716.938 32.9258V42.5078C716.938 43.2526 716.978 43.7181 717.057 43.9043C717.135 44.0905 717.297 44.2552 717.54 44.3984C717.784 44.5345 718.109 44.6025 718.518 44.6025H718.99V45H711.385V44.6025H711.857C712.287 44.6025 712.627 44.5273 712.878 44.377C713.064 44.2767 713.211 44.1048 713.318 43.8613C713.397 43.6895 713.437 43.2383 713.437 42.5078V37.9961H708.291ZM725.393 31.2715V37.2012H725.683C726.606 37.2012 727.276 36.9111 727.691 36.3311C728.107 35.751 728.372 34.8952 728.486 33.7637H728.895V41.3906H728.486C728.4 40.5599 728.218 39.8796 727.938 39.3496C727.666 38.8197 727.348 38.4652 726.982 38.2861C726.617 38.0999 726.087 38.0068 725.393 38.0068V42.1104C725.393 42.9124 725.425 43.403 725.489 43.582C725.561 43.7611 725.69 43.9079 725.876 44.0225C726.062 44.137 726.363 44.1943 726.778 44.1943H727.648C729.009 44.1943 730.098 43.8792 730.914 43.249C731.738 42.6188 732.328 41.6592 732.687 40.3701H733.084L732.429 45H719.839V44.6025H720.322C720.745 44.6025 721.085 44.5273 721.343 44.377C721.529 44.2767 721.672 44.1048 721.772 43.8613C721.851 43.6895 721.891 43.2383 721.891 42.5078V32.9258C721.891 32.2669 721.873 31.8623 721.837 31.7119C721.765 31.4613 721.633 31.2679 721.439 31.1318C721.167 30.9313 720.795 30.8311 720.322 30.8311H719.839V30.4336H732.031V34.7412H731.623C731.415 33.6885 731.122 32.9329 730.742 32.4746C730.37 32.0163 729.84 31.6797 729.152 31.4648C728.751 31.3359 727.999 31.2715 726.896 31.2715H725.393ZM739.551 30.4336L746.737 39.4678V33.2051C746.737 32.3314 746.612 31.7406 746.361 31.4326C746.018 31.0173 745.441 30.8167 744.632 30.8311V30.4336H749.444V30.8311C748.828 30.9098 748.413 31.0137 748.198 31.1426C747.991 31.2643 747.826 31.4684 747.704 31.7549C747.59 32.0342 747.532 32.5176 747.532 33.2051V45.333H747.167L737.316 33.2051V42.4648C737.316 43.3027 737.506 43.8685 737.886 44.1621C738.272 44.4557 738.713 44.6025 739.207 44.6025H739.551V45H734.384V44.6025C735.186 44.5954 735.744 44.4307 736.06 44.1084C736.375 43.7861 736.532 43.2383 736.532 42.4648V32.1846L736.221 31.7979C735.913 31.4111 735.641 31.1569 735.404 31.0352C735.168 30.9134 734.828 30.8454 734.384 30.8311V30.4336H739.551ZM711.933 59.2715V65.2012H712.223C713.146 65.2012 713.816 64.9111 714.231 64.3311C714.647 63.751 714.912 62.8952 715.026 61.7637H715.435V69.3906H715.026C714.94 68.5599 714.758 67.8796 714.479 67.3496C714.206 66.8197 713.888 66.4652 713.522 66.2861C713.157 66.0999 712.627 66.0068 711.933 66.0068V70.1104C711.933 70.9124 711.965 71.403 712.029 71.582C712.101 71.7611 712.23 71.9079 712.416 72.0225C712.602 72.137 712.903 72.1943 713.318 72.1943H714.188C715.549 72.1943 716.638 71.8792 717.454 71.249C718.278 70.6188 718.868 69.6592 719.227 68.3701H719.624L718.969 73H706.379V72.6025H706.862C707.285 72.6025 707.625 72.5273 707.883 72.377C708.069 72.2767 708.212 72.1048 708.312 71.8613C708.391 71.6895 708.431 71.2383 708.431 70.5078V60.9258C708.431 60.2669 708.413 59.8623 708.377 59.7119C708.305 59.4613 708.173 59.2679 707.979 59.1318C707.707 58.9313 707.335 58.8311 706.862 58.8311H706.379V58.4336H718.571V62.7412H718.163C717.955 61.6885 717.662 60.9329 717.282 60.4746C716.91 60.0163 716.38 59.6797 715.692 59.4648C715.291 59.3359 714.539 59.2715 713.437 59.2715H711.933ZM726.66 59.2715V65.2549H727.079C727.724 65.2549 728.25 65.1582 728.658 64.9648C729.066 64.7715 729.41 64.4456 729.689 63.9873C729.976 63.529 730.162 62.9095 730.248 62.1289H730.624V69.4443H730.248C730.112 68.0622 729.74 67.1527 729.131 66.7158C728.529 66.2718 727.845 66.0498 727.079 66.0498H726.66V70.5078C726.66 71.2526 726.7 71.7181 726.778 71.9043C726.864 72.0905 727.025 72.2552 727.262 72.3984C727.505 72.5345 727.831 72.6025 728.239 72.6025H728.723V73H721.106V72.6025H721.59C722.012 72.6025 722.353 72.5273 722.61 72.377C722.797 72.2767 722.94 72.1048 723.04 71.8613C723.119 71.6895 723.158 71.2383 723.158 70.5078V60.9258C723.158 60.181 723.119 59.7155 723.04 59.5293C722.961 59.3431 722.8 59.182 722.557 59.0459C722.32 58.9027 721.998 58.8311 721.59 58.8311H721.106V58.4336H733.396V62.6123H732.955C732.855 61.6312 732.597 60.9043 732.182 60.4316C731.773 59.959 731.179 59.626 730.398 59.4326C729.969 59.3252 729.174 59.2715 728.014 59.2715H726.66ZM697.86 87.2715V93.2012H698.15C699.074 93.2012 699.744 92.9111 700.159 92.3311C700.575 91.751 700.84 90.8952 700.954 89.7637H701.362V97.3906H700.954C700.868 96.5599 700.686 95.8796 700.406 95.3496C700.134 94.8197 699.815 94.4652 699.45 94.2861C699.085 94.0999 698.555 94.0068 697.86 94.0068V98.1104C697.86 98.9124 697.893 99.403 697.957 99.582C698.029 99.7611 698.158 99.9079 698.344 100.022C698.53 100.137 698.831 100.194 699.246 100.194H700.116C701.477 100.194 702.565 99.8792 703.382 99.249C704.205 98.6188 704.796 97.6592 705.154 96.3701H705.552L704.896 101H692.307V100.603H692.79C693.213 100.603 693.553 100.527 693.811 100.377C693.997 100.277 694.14 100.105 694.24 99.8613C694.319 99.6895 694.358 99.2383 694.358 98.5078V88.9258C694.358 88.2669 694.34 87.8623 694.305 87.7119C694.233 87.4613 694.101 87.2679 693.907 87.1318C693.635 86.9313 693.263 86.8311 692.79 86.8311H692.307V86.4336H704.499V90.7412H704.091C703.883 89.6885 703.59 88.9329 703.21 88.4746C702.838 88.0163 702.308 87.6797 701.62 87.4648C701.219 87.3359 700.467 87.2715 699.364 87.2715H697.86ZM720.43 95.8867L719.882 101H706.948V100.603H707.432C707.854 100.603 708.194 100.527 708.452 100.377C708.638 100.277 708.782 100.105 708.882 99.8613C708.961 99.6895 709 99.2383 709 98.5078V88.9258C709 88.181 708.961 87.7155 708.882 87.5293C708.803 87.3431 708.642 87.182 708.398 87.0459C708.162 86.9027 707.84 86.8311 707.432 86.8311H706.948V86.4336H714.715V86.8311H714.081C713.659 86.8311 713.318 86.9062 713.061 87.0566C712.874 87.1569 712.728 87.3288 712.62 87.5723C712.541 87.7441 712.502 88.1953 712.502 88.9258V98.207C712.502 98.9518 712.545 99.4281 712.631 99.6357C712.717 99.8363 712.885 99.9867 713.136 100.087C713.315 100.151 713.748 100.184 714.436 100.184H715.649C716.423 100.184 717.067 100.048 717.583 99.7754C718.099 99.5033 718.543 99.0736 718.915 98.4863C719.295 97.8991 719.653 97.0326 719.989 95.8867H720.43ZM735.093 86.4336V90.376H734.706C734.477 89.4665 734.223 88.8148 733.943 88.4209C733.664 88.0199 733.281 87.7012 732.794 87.4648C732.522 87.3359 732.046 87.2715 731.365 87.2715H730.28V98.5078C730.28 99.2526 730.32 99.7181 730.398 99.9043C730.484 100.09 730.646 100.255 730.882 100.398C731.125 100.535 731.455 100.603 731.87 100.603H732.354V101H724.727V100.603H725.21C725.632 100.603 725.973 100.527 726.23 100.377C726.417 100.277 726.563 100.105 726.671 99.8613C726.75 99.6895 726.789 99.2383 726.789 98.5078V87.2715H725.736C724.755 87.2715 724.043 87.4792 723.599 87.8945C722.976 88.4746 722.582 89.3018 722.417 90.376H722.009V86.4336H735.093ZM746.222 86.1006L746.34 90.9561H745.899C745.692 89.7386 745.18 88.7611 744.363 88.0234C743.554 87.2786 742.677 86.9062 741.731 86.9062C741.001 86.9062 740.421 87.1032 739.991 87.4971C739.569 87.8838 739.357 88.3314 739.357 88.8398C739.357 89.1621 739.433 89.4486 739.583 89.6992C739.791 90.0358 740.124 90.3688 740.582 90.6982C740.919 90.9346 741.696 91.3535 742.913 91.9551C744.618 92.793 745.767 93.5843 746.361 94.3291C746.949 95.0739 747.242 95.9261 747.242 96.8857C747.242 98.1032 746.766 99.1523 745.813 100.033C744.868 100.907 743.665 101.344 742.204 101.344C741.746 101.344 741.312 101.297 740.904 101.204C740.496 101.111 739.984 100.936 739.368 100.678C739.024 100.535 738.742 100.463 738.52 100.463C738.333 100.463 738.136 100.535 737.929 100.678C737.721 100.821 737.553 101.039 737.424 101.333H737.026V95.833H737.424C737.739 97.3799 738.344 98.5615 739.239 99.3779C740.142 100.187 741.112 100.592 742.15 100.592C742.952 100.592 743.59 100.373 744.062 99.9365C744.542 99.4997 744.782 98.9912 744.782 98.4111C744.782 98.0674 744.689 97.7344 744.503 97.4121C744.324 97.0898 744.048 96.7855 743.676 96.499C743.303 96.2054 742.645 95.8258 741.699 95.3604C740.374 94.7087 739.422 94.1536 738.842 93.6953C738.262 93.237 737.814 92.7249 737.499 92.1592C737.191 91.5934 737.037 90.9704 737.037 90.29C737.037 89.1299 737.463 88.1416 738.315 87.3252C739.168 86.5088 740.242 86.1006 741.538 86.1006C742.011 86.1006 742.469 86.1579 742.913 86.2725C743.25 86.3584 743.658 86.5195 744.138 86.7559C744.625 86.985 744.965 87.0996 745.158 87.0996C745.344 87.0996 745.491 87.0423 745.599 86.9277C745.706 86.8132 745.806 86.5374 745.899 86.1006H746.222Z"
        fill="black" />
</svg>
    