<svg width="26" height="18" viewBox="0 0 26 18" fill="none" xmlns="http://www.w3.org/2000/svg">
    <path
        d="M9.5625 0.25H23.9375C24.5234 0.25 25.1094 0.640625 25.3438 1.1875C25.6172 1.77344 25.5 2.4375 25.0703 2.90625L19.25 9.23438V15.25C19.25 15.7578 18.9766 16.1875 18.5469 16.3828C18.1172 16.5781 17.6094 16.5391 17.2188 16.2656L14.7188 14.3906C14.4062 14.1562 14.25 13.8047 14.25 13.375V9.23438L8.39062 2.90625C7.96094 2.4375 7.88281 1.77344 8.11719 1.1875C8.35156 0.640625 8.9375 0.25 9.5625 0.25ZM2.0625 2.75H6.90625C7.02344 3.10156 7.21875 3.45312 7.49219 3.72656L13 9.70312V10.3672L11.75 11.7344V16.5C11.75 17.0078 11.4766 17.4375 11.0469 17.6328C10.6172 17.8281 10.1094 17.7891 9.71875 17.5156L7.21875 15.6406C6.90625 15.4062 6.75 15.0547 6.75 14.625V11.7344L0.890625 5.40625C0.460938 4.9375 0.382812 4.27344 0.617188 3.6875C0.851562 3.14062 1.4375 2.75 2.0625 2.75Z"
        fill="black" />
</svg>
    