<svg width="59" height="72" viewBox="0 0 59 72" fill="none" xmlns="http://www.w3.org/2000/svg">
    <path
        d="M9.36328 0.100586L9.48145 4.95605H9.04102C8.83333 3.73861 8.32129 2.76107 7.50488 2.02344C6.69564 1.27865 5.81836 0.90625 4.87305 0.90625C4.14258 0.90625 3.5625 1.10319 3.13281 1.49707C2.71029 1.88379 2.49902 2.33138 2.49902 2.83984C2.49902 3.16211 2.57422 3.44857 2.72461 3.69922C2.93229 4.03581 3.2653 4.36882 3.72363 4.69824C4.06022 4.93457 4.83724 5.35352 6.05469 5.95508C7.75911 6.79297 8.90853 7.58431 9.50293 8.3291C10.0902 9.07389 10.3838 9.92611 10.3838 10.8857C10.3838 12.1032 9.90755 13.1523 8.95508 14.0332C8.00977 14.9069 6.80664 15.3438 5.3457 15.3438C4.88737 15.3438 4.4541 15.2972 4.0459 15.2041C3.6377 15.111 3.12565 14.9355 2.50977 14.6777C2.16602 14.5345 1.88314 14.4629 1.66113 14.4629C1.47493 14.4629 1.27799 14.5345 1.07031 14.6777C0.86263 14.821 0.694336 15.0394 0.56543 15.333H0.167969V9.83301H0.56543C0.880534 11.3799 1.48568 12.5615 2.38086 13.3779C3.2832 14.1872 4.25358 14.5918 5.29199 14.5918C6.09408 14.5918 6.73145 14.3734 7.2041 13.9365C7.68392 13.4997 7.92383 12.9912 7.92383 12.4111C7.92383 12.0674 7.83073 11.7344 7.64453 11.4121C7.46549 11.0898 7.18978 10.7855 6.81738 10.499C6.44499 10.2054 5.78613 9.82585 4.84082 9.36035C3.51595 8.70866 2.56348 8.15365 1.9834 7.69531C1.40332 7.23698 0.955729 6.72493 0.640625 6.15918C0.332682 5.59342 0.178711 4.97038 0.178711 4.29004C0.178711 3.12988 0.604818 2.1416 1.45703 1.3252C2.30924 0.508789 3.38346 0.100586 4.67969 0.100586C5.15234 0.100586 5.61068 0.157878 6.05469 0.272461C6.39128 0.358398 6.79948 0.519531 7.2793 0.755859C7.76628 0.985026 8.10645 1.09961 8.2998 1.09961C8.486 1.09961 8.63281 1.04232 8.74023 0.927734C8.84766 0.813151 8.94792 0.537435 9.04102 0.100586H9.36328ZM17.291 7.99609V12.5078C17.291 13.2526 17.3304 13.7181 17.4092 13.9043C17.4951 14.0905 17.6562 14.2552 17.8926 14.3984C18.1361 14.5345 18.4619 14.6025 18.8701 14.6025H19.3535V15H11.7373V14.6025H12.2207C12.6432 14.6025 12.9834 14.5273 13.2412 14.377C13.4274 14.2767 13.5706 14.1048 13.6709 13.8613C13.7497 13.6895 13.7891 13.2383 13.7891 12.5078V2.92578C13.7891 2.18099 13.7497 1.71549 13.6709 1.5293C13.5921 1.3431 13.431 1.18197 13.1875 1.0459C12.9512 0.902669 12.6289 0.831055 12.2207 0.831055H11.7373V0.433594H19.3535V0.831055H18.8701C18.4476 0.831055 18.1074 0.90625 17.8496 1.05664C17.6634 1.1569 17.5166 1.32878 17.4092 1.57227C17.3304 1.74414 17.291 2.19531 17.291 2.92578V7.05078H22.4365V2.92578C22.4365 2.18099 22.3971 1.71549 22.3184 1.5293C22.2396 1.3431 22.0785 1.18197 21.835 1.0459C21.5915 0.902669 21.2656 0.831055 20.8574 0.831055H20.3848V0.433594H27.9902V0.831055H27.5176C27.0879 0.831055 26.7477 0.90625 26.4971 1.05664C26.3109 1.1569 26.1641 1.32878 26.0566 1.57227C25.9779 1.74414 25.9385 2.19531 25.9385 2.92578V12.5078C25.9385 13.2526 25.9779 13.7181 26.0566 13.9043C26.1354 14.0905 26.2965 14.2552 26.54 14.3984C26.7835 14.5345 27.1094 14.6025 27.5176 14.6025H27.9902V15H20.3848V14.6025H20.8574C21.2871 14.6025 21.6273 14.5273 21.8779 14.377C22.0641 14.2767 22.2109 14.1048 22.3184 13.8613C22.3971 13.6895 22.4365 13.2383 22.4365 12.5078V7.99609H17.291ZM34.3926 1.27148V7.20117H34.6826C35.6064 7.20117 36.276 6.91113 36.6914 6.33105C37.1068 5.75098 37.3717 4.89518 37.4863 3.76367H37.8945V11.3906H37.4863C37.4004 10.5599 37.2178 9.87956 36.9385 9.34961C36.6663 8.81966 36.3477 8.46517 35.9824 8.28613C35.6172 8.09993 35.0872 8.00684 34.3926 8.00684V12.1104C34.3926 12.9124 34.4248 13.403 34.4893 13.582C34.5609 13.7611 34.6898 13.9079 34.876 14.0225C35.0622 14.137 35.363 14.1943 35.7783 14.1943H36.6484C38.0091 14.1943 39.0977 13.8792 39.9141 13.249C40.7376 12.6188 41.3285 11.6592 41.6865 10.3701H42.084L41.4287 15H28.8389V14.6025H29.3223C29.7448 14.6025 30.085 14.5273 30.3428 14.377C30.529 14.2767 30.6722 14.1048 30.7725 13.8613C30.8512 13.6895 30.8906 13.2383 30.8906 12.5078V2.92578C30.8906 2.26693 30.8727 1.8623 30.8369 1.71191C30.7653 1.46126 30.6328 1.2679 30.4395 1.13184C30.1673 0.931315 29.7949 0.831055 29.3223 0.831055H28.8389V0.433594H41.0312V4.74121H40.623C40.4154 3.68848 40.1217 2.93294 39.7422 2.47461C39.3698 2.01628 38.8398 1.67969 38.1523 1.46484C37.7513 1.33594 36.9993 1.27148 35.8965 1.27148H34.3926ZM48.5508 0.433594L55.7373 9.46777V3.20508C55.7373 2.33138 55.612 1.74056 55.3613 1.43262C55.0176 1.01725 54.4411 0.816732 53.6318 0.831055V0.433594H58.4443V0.831055C57.8285 0.909831 57.4131 1.01367 57.1982 1.14258C56.9906 1.26432 56.8258 1.46842 56.7041 1.75488C56.5895 2.03418 56.5322 2.51758 56.5322 3.20508V15.333H56.167L46.3164 3.20508V12.4648C46.3164 13.3027 46.5062 13.8685 46.8857 14.1621C47.2725 14.4557 47.7129 14.6025 48.207 14.6025H48.5508V15H43.3838V14.6025C44.1859 14.5954 44.7445 14.4307 45.0596 14.1084C45.3747 13.7861 45.5322 13.2383 45.5322 12.4648V2.18457L45.2207 1.79785C44.9128 1.41113 44.6406 1.1569 44.4043 1.03516C44.168 0.913411 43.8278 0.845378 43.3838 0.831055V0.433594H48.5508ZM20.9326 29.2715V35.2012H21.2227C22.1465 35.2012 22.8161 34.9111 23.2314 34.3311C23.6468 33.751 23.9118 32.8952 24.0264 31.7637H24.4346V39.3906H24.0264C23.9404 38.5599 23.7578 37.8796 23.4785 37.3496C23.2064 36.8197 22.8877 36.4652 22.5225 36.2861C22.1572 36.0999 21.6273 36.0068 20.9326 36.0068V40.1104C20.9326 40.9124 20.9648 41.403 21.0293 41.582C21.1009 41.7611 21.2298 41.9079 21.416 42.0225C21.6022 42.137 21.903 42.1943 22.3184 42.1943H23.1885C24.5492 42.1943 25.6377 41.8792 26.4541 41.249C27.2777 40.6188 27.8685 39.6592 28.2266 38.3701H28.624L27.9688 43H15.3789V42.6025H15.8623C16.2848 42.6025 16.625 42.5273 16.8828 42.377C17.069 42.2767 17.2122 42.1048 17.3125 41.8613C17.3913 41.6895 17.4307 41.2383 17.4307 40.5078V30.9258C17.4307 30.2669 17.4128 29.8623 17.377 29.7119C17.3053 29.4613 17.1729 29.2679 16.9795 29.1318C16.7074 28.9313 16.335 28.8311 15.8623 28.8311H15.3789V28.4336H27.5713V32.7412H27.1631C26.9554 31.6885 26.6618 30.9329 26.2822 30.4746C25.9098 30.0163 25.3799 29.6797 24.6924 29.4648C24.2913 29.3359 23.5394 29.2715 22.4365 29.2715H20.9326ZM35.6602 29.2715V35.2549H36.0791C36.7236 35.2549 37.25 35.1582 37.6582 34.9648C38.0664 34.7715 38.4102 34.4456 38.6895 33.9873C38.9759 33.529 39.1621 32.9095 39.248 32.1289H39.624V39.4443H39.248C39.112 38.0622 38.7396 37.1527 38.1309 36.7158C37.5293 36.2718 36.8454 36.0498 36.0791 36.0498H35.6602V40.5078C35.6602 41.2526 35.6995 41.7181 35.7783 41.9043C35.8643 42.0905 36.0254 42.2552 36.2617 42.3984C36.5052 42.5345 36.8311 42.6025 37.2393 42.6025H37.7227V43H30.1064V42.6025H30.5898C31.0124 42.6025 31.3525 42.5273 31.6104 42.377C31.7965 42.2767 31.9398 42.1048 32.04 41.8613C32.1188 41.6895 32.1582 41.2383 32.1582 40.5078V30.9258C32.1582 30.181 32.1188 29.7155 32.04 29.5293C31.9613 29.3431 31.8001 29.182 31.5566 29.0459C31.3203 28.9027 30.998 28.8311 30.5898 28.8311H30.1064V28.4336H42.3955V32.6123H41.9551C41.8548 31.6312 41.597 30.9043 41.1816 30.4316C40.7734 29.959 40.179 29.626 39.3984 29.4326C38.9688 29.3252 38.1738 29.2715 37.0137 29.2715H35.6602ZM6.86035 57.2715V63.2012H7.15039C8.07422 63.2012 8.74382 62.9111 9.15918 62.3311C9.57454 61.751 9.83952 60.8952 9.9541 59.7637H10.3623V67.3906H9.9541C9.86816 66.5599 9.68555 65.8796 9.40625 65.3496C9.13411 64.8197 8.81543 64.4652 8.4502 64.2861C8.08496 64.0999 7.55501 64.0068 6.86035 64.0068V68.1104C6.86035 68.9124 6.89258 69.403 6.95703 69.582C7.02865 69.7611 7.15755 69.9079 7.34375 70.0225C7.52995 70.137 7.83073 70.1943 8.24609 70.1943H9.11621C10.4769 70.1943 11.5654 69.8792 12.3818 69.249C13.2054 68.6188 13.7962 67.6592 14.1543 66.3701H14.5518L13.8965 71H1.30664V70.6025H1.79004C2.21257 70.6025 2.55273 70.5273 2.81055 70.377C2.99674 70.2767 3.13997 70.1048 3.24023 69.8613C3.31901 69.6895 3.3584 69.2383 3.3584 68.5078V58.9258C3.3584 58.2669 3.34049 57.8623 3.30469 57.7119C3.23307 57.4613 3.10059 57.2679 2.90723 57.1318C2.63509 56.9313 2.2627 56.8311 1.79004 56.8311H1.30664V56.4336H13.499V60.7412H13.0908C12.8831 59.6885 12.5895 58.9329 12.21 58.4746C11.8376 58.0163 11.3076 57.6797 10.6201 57.4648C10.2191 57.3359 9.46712 57.2715 8.36426 57.2715H6.86035ZM29.4297 65.8867L28.8818 71H15.9482V70.6025H16.4316C16.8542 70.6025 17.1943 70.5273 17.4521 70.377C17.6383 70.2767 17.7816 70.1048 17.8818 69.8613C17.9606 69.6895 18 69.2383 18 68.5078V58.9258C18 58.181 17.9606 57.7155 17.8818 57.5293C17.8031 57.3431 17.6419 57.182 17.3984 57.0459C17.1621 56.9027 16.8398 56.8311 16.4316 56.8311H15.9482V56.4336H23.7148V56.8311H23.0811C22.6585 56.8311 22.3184 56.9062 22.0605 57.0566C21.8743 57.1569 21.7275 57.3288 21.6201 57.5723C21.5413 57.7441 21.502 58.1953 21.502 58.9258V68.207C21.502 68.9518 21.5449 69.4281 21.6309 69.6357C21.7168 69.8363 21.8851 69.9867 22.1357 70.0869C22.3148 70.1514 22.748 70.1836 23.4355 70.1836H24.6494C25.4229 70.1836 26.0674 70.0475 26.583 69.7754C27.0986 69.5033 27.5426 69.0736 27.915 68.4863C28.2946 67.8991 28.6527 67.0326 28.9893 65.8867H29.4297ZM44.0928 56.4336V60.376H43.7061C43.4769 59.4665 43.2227 58.8148 42.9434 58.4209C42.6641 58.0199 42.2809 57.7012 41.7939 57.4648C41.5218 57.3359 41.0456 57.2715 40.3652 57.2715H39.2803V68.5078C39.2803 69.2526 39.3197 69.7181 39.3984 69.9043C39.4844 70.0905 39.6455 70.2552 39.8818 70.3984C40.1253 70.5345 40.4548 70.6025 40.8701 70.6025H41.3535V71H33.7266V70.6025H34.21C34.6325 70.6025 34.9727 70.5273 35.2305 70.377C35.4167 70.2767 35.5635 70.1048 35.6709 69.8613C35.7497 69.6895 35.7891 69.2383 35.7891 68.5078V57.2715H34.7363C33.7552 57.2715 33.0426 57.4792 32.5986 57.8945C31.9756 58.4746 31.5817 59.3018 31.417 60.376H31.0088V56.4336H44.0928ZM55.2217 56.1006L55.3398 60.9561H54.8994C54.6917 59.7386 54.1797 58.7611 53.3633 58.0234C52.554 57.2786 51.6768 56.9062 50.7314 56.9062C50.001 56.9062 49.4209 57.1032 48.9912 57.4971C48.5687 57.8838 48.3574 58.3314 48.3574 58.8398C48.3574 59.1621 48.4326 59.4486 48.583 59.6992C48.7907 60.0358 49.1237 60.3688 49.582 60.6982C49.9186 60.9346 50.6956 61.3535 51.9131 61.9551C53.6175 62.793 54.7669 63.5843 55.3613 64.3291C55.9486 65.0739 56.2422 65.9261 56.2422 66.8857C56.2422 68.1032 55.766 69.1523 54.8135 70.0332C53.8682 70.9069 52.665 71.3438 51.2041 71.3438C50.7458 71.3438 50.3125 71.2972 49.9043 71.2041C49.4961 71.111 48.984 70.9355 48.3682 70.6777C48.0244 70.5345 47.7415 70.4629 47.5195 70.4629C47.3333 70.4629 47.1364 70.5345 46.9287 70.6777C46.721 70.821 46.5527 71.0394 46.4238 71.333H46.0264V65.833H46.4238C46.7389 67.3799 47.3441 68.5615 48.2393 69.3779C49.1416 70.1872 50.112 70.5918 51.1504 70.5918C51.9525 70.5918 52.5898 70.3734 53.0625 69.9365C53.5423 69.4997 53.7822 68.9912 53.7822 68.4111C53.7822 68.0674 53.6891 67.7344 53.5029 67.4121C53.3239 67.0898 53.0482 66.7855 52.6758 66.499C52.3034 66.2054 51.6445 65.8258 50.6992 65.3604C49.3743 64.7087 48.4219 64.1536 47.8418 63.6953C47.2617 63.237 46.8141 62.7249 46.499 62.1592C46.1911 61.5934 46.0371 60.9704 46.0371 60.29C46.0371 59.1299 46.4632 58.1416 47.3154 57.3252C48.1676 56.5088 49.2419 56.1006 50.5381 56.1006C51.0107 56.1006 51.4691 56.1579 51.9131 56.2725C52.2497 56.3584 52.6579 56.5195 53.1377 56.7559C53.6247 56.985 53.9648 57.0996 54.1582 57.0996C54.3444 57.0996 54.4912 57.0423 54.5986 56.9277C54.7061 56.8132 54.8063 56.5374 54.8994 56.1006H55.2217Z"
        fill="black" />
</svg>
    